HIERARCHY
ROOT Hips
{
	OFFSET 0.000000 88.474243 0.000000
	CHANNELS 6 Xposition Yposition Zposition Zrotation Yrotation Xrotation 
	JOINT Hips_Spine
	{
		OFFSET 0.000000 0.000000 0.000000
		CHANNELS 3 Zrotation Yrotation Xrotation
		JOINT Spine
		{
			OFFSET 0.005100 8.711998 -0.691000
			CHANNELS 3 Zrotation Yrotation Xrotation
			JOINT Spine1
			{
				OFFSET -0.009200 8.660301 -1.275000
				CHANNELS 3 Zrotation Yrotation Xrotation
				JOINT Spine2
				{
					OFFSET 0.006300 9.852501 -1.857000
					CHANNELS 3 Zrotation Yrotation Xrotation
					JOINT Spine2_Neck
					{
						OFFSET 0.000000 0.000000 0.000000
						CHANNELS 3 Zrotation Yrotation Xrotation
						JOINT Neck
						{
							OFFSET 0.016300 11.420799 -0.263300
							CHANNELS 3 Zrotation Yrotation Xrotation
							End Site #name: Head
							{
								OFFSET -0.019200 9.262405 2.362500
							}
						}
					}
					JOINT Spine2_LeftShoulder
					{
						OFFSET 0.000000 0.000000 0.000000
						CHANNELS 3 Zrotation Yrotation Xrotation
						JOINT LeftShoulder
						{
							OFFSET 5.616900 6.732201 -0.345700
							CHANNELS 3 Zrotation Yrotation Xrotation
							JOINT LeftArm
							{
								OFFSET 10.664888 -0.183372 -2.440700
								CHANNELS 3 Zrotation Yrotation Xrotation
								JOINT LeftForeArm
								{
									OFFSET 27.459126 0.000000 0.000000
									CHANNELS 3 Zrotation Yrotation Xrotation
									End Site #name: LeftHand
									{
										OFFSET 21.306858 0.000000 0.000000
									}
								}
							}
						}
					}
					JOINT Spine2_RightShoulder
					{
						OFFSET 0.000000 0.000000 0.000000
						CHANNELS 3 Zrotation Yrotation Xrotation
						JOINT RightShoulder
						{
							OFFSET -5.580300 6.737503 -0.344400
							CHANNELS 3 Zrotation Yrotation Xrotation
							JOINT RightArm
							{
								OFFSET -10.679335 -0.188484 -2.383900
								CHANNELS 3 Zrotation Yrotation Xrotation
								JOINT RightForeArm
								{
									OFFSET -27.503529 0.000000 0.000000
									CHANNELS 3 Zrotation Yrotation Xrotation
									End Site #name: RightHand
									{
										OFFSET -21.306808 0.000000 0.000000
									}
								}
							}
						}
					}
				}
			}
		}
	}
	JOINT Hips_LeftUpLeg
	{
		OFFSET 0.000000 0.000000 0.000000
		CHANNELS 3 Zrotation Yrotation Xrotation
		JOINT LeftUpLeg
		{
			OFFSET 6.857700 -6.739601 0.312100
			CHANNELS 3 Zrotation Yrotation Xrotation
			JOINT LeftLeg
			{
				OFFSET -0.367590 -34.731552 -4.572400
				CHANNELS 3 Zrotation Yrotation Xrotation
				End Site #name: LeftFoot
				{
					OFFSET 0.367590 -34.656704 -6.067400
				}
			}
		}
	}
	JOINT Hips_RightUpLeg
	{
		OFFSET 0.000000 0.000000 0.000000
		CHANNELS 3 Zrotation Yrotation Xrotation
		JOINT RightUpLeg
		{
			OFFSET -6.876100 -6.733299 0.301000
			CHANNELS 3 Zrotation Yrotation Xrotation
			JOINT RightLeg
			{
				OFFSET 0.347353 -34.795158 -4.515900
				CHANNELS 3 Zrotation Yrotation Xrotation
				End Site #name: RightFoot
				{
					OFFSET -0.347353 -34.589367 -6.070300
				}
			}
		}
	}
}
MOTION
Frames: 15
Frame Time: 0.041667
-1.565762 -0.115137 -1.321369 -1.220778 -0.489101 -1.995183 0.000000 -0.000000 0.000000 2.291424 1.044781 2.520403 -1.532917 0.161343 3.962472 0.000000 0.000000 0.000000 -1.770745 0.069094 3.484920 0.293894 -0.904946 3.734701 -1.135579 -0.000300 4.875145 2.654201 6.562818 0.218854 -61.456320 -1.876284 70.030376 0.135861 -20.020643 0.048430 -1.551912 0.257324 3.898204 8.141521 6.603719 1.866551 71.166802 -13.515726 50.894140 0.254261 64.799741 0.619868 0.000000 -0.000000 -0.000000 0.855188 11.160450 -15.656554 4.642761 7.824094 18.283796 0.000000 -0.000000 0.000000 -2.592699 -9.534292 -12.499426 -0.242792 -1.662949 16.526725 
-1.890479 -0.128356 -1.373586 -1.082224 -0.395599 -1.967283 0.000000 -0.000000 0.000000 2.405151 0.949931 2.621676 -1.454597 0.147749 3.996977 0.000000 0.000000 0.000000 -1.661962 0.052371 3.556057 0.312950 -0.894027 3.897457 -1.046297 -0.013540 4.917602 2.699401 6.607090 0.206472 -61.707741 -1.904703 69.549554 0.138312 -19.862447 0.043702 -1.450990 0.237766 3.941878 8.203559 6.545206 1.852141 70.846604 -13.613520 50.553060 0.252187 64.764968 0.612884 0.000000 -0.000000 -0.000000 0.981158 11.309336 -15.753000 4.665138 7.777624 18.307784 0.000000 -0.000000 0.000000 -2.447432 -9.475315 -12.531173 -0.238022 -1.758625 16.542875 
-2.201852 -0.141503 -1.425429 -0.950906 -0.300223 -1.932532 0.000000 -0.000000 0.000000 2.483552 0.854782 2.745522 -1.375374 0.134792 4.039858 0.000000 0.000000 0.000000 -1.550648 0.035815 3.634349 0.328343 -0.874626 4.068551 -0.955917 -0.026337 4.971855 2.723005 6.643962 0.192914 -61.944047 -1.969880 69.084386 0.141220 -19.667911 0.038278 -1.347766 0.218366 3.995261 8.259795 6.483612 1.833153 70.537693 -13.661042 50.237373 0.248965 64.762748 0.604969 0.000000 -0.000000 -0.000000 1.097253 11.424637 -15.860588 4.682319 7.742777 18.335467 0.000000 -0.000000 0.000000 -2.303676 -9.420864 -12.570648 -0.233475 -1.850063 16.575288 
-2.498433 -0.154279 -1.476781 -0.827713 -0.201088 -1.894696 0.000000 -0.000000 0.000000 2.537183 0.760792 2.884210 -1.295288 0.121716 4.089186 0.000000 0.000000 0.000000 -1.438660 0.019581 3.720456 0.343590 -0.851922 4.239136 -0.862938 -0.038699 5.035183 2.727212 6.670223 0.180200 -62.185745 -2.039975 68.610305 0.142962 -19.453437 0.034548 -1.242839 0.199318 4.057281 8.308198 6.415758 1.810268 70.218003 -13.664947 49.998106 0.242679 64.805493 0.595113 0.000000 -0.000000 -0.000000 1.210539 11.502793 -15.970335 4.692673 7.712641 18.361331 0.000000 -0.000000 0.000000 -2.162334 -9.370923 -12.615695 -0.232743 -1.939382 16.617931 
-2.778736 -0.166610 -1.527408 -0.712561 -0.107145 -1.858446 0.000000 -0.000000 0.000000 2.569698 0.668301 3.030067 -1.215726 0.108751 4.143360 0.000000 0.000000 0.000000 -1.326881 0.003818 3.811577 0.357582 -0.829627 4.411961 -0.770583 -0.050131 5.106018 2.711388 6.683665 0.167681 -62.406250 -2.110180 68.180137 0.143929 -19.194350 0.030615 -1.137615 0.180290 4.124500 8.346814 6.345613 1.785816 69.899726 -13.631172 49.757050 0.237346 64.846521 0.586726 0.000000 -0.000000 -0.000000 1.327061 11.586180 -16.092765 4.699179 7.691062 18.416921 0.000000 -0.000000 0.000000 -2.029158 -9.324650 -12.658290 -0.239784 -2.033470 16.666348 
-3.041252 -0.178235 -1.577050 -0.609124 -0.017151 -1.827082 0.000000 -0.000000 0.000000 2.588672 0.580370 3.177088 -1.112632 0.083269 4.206965 0.000000 0.000000 0.000000 -1.217880 -0.011461 3.904539 0.367166 -0.808930 4.586932 -0.679812 -0.061257 5.177572 2.685394 6.694874 0.155392 -62.614092 -2.183251 67.790080 0.144414 -18.920178 0.026675 -1.034227 0.161643 4.193918 8.371471 6.276722 1.759694 69.579287 -13.557211 49.503218 0.229346 64.876737 0.576283 0.000000 -0.000000 -0.000000 1.439158 11.638017 -16.204641 4.700232 7.685848 18.456651 0.000000 -0.000000 0.000000 -1.905528 -9.280015 -12.696643 -0.255760 -2.137262 16.717987 
-3.284646 -0.189084 -1.625438 -0.515516 0.064258 -1.803113 0.000000 -0.000000 0.000000 2.597653 0.497533 3.305983 -1.009995 0.056497 4.271462 0.000000 0.000000 0.000000 -1.112782 -0.027530 3.999498 0.372686 -0.789758 4.768118 -0.591664 -0.072917 5.252289 2.651306 6.706210 0.142309 -62.835508 -2.257350 67.374514 0.144046 -18.591545 0.023774 -0.934982 0.142477 4.265471 8.379178 6.207909 1.734909 69.297396 -13.466854 49.241371 0.223057 64.823030 0.568691 0.000000 -0.000000 -0.000000 1.543930 11.669093 -16.291543 4.694359 7.698589 18.466361 0.000000 -0.000000 0.000000 -1.795038 -9.238195 -12.729397 -0.285063 -2.250853 16.770842 
-3.507520 -0.199091 -1.672292 -0.430100 0.136448 -1.786779 0.000000 -0.000000 -0.000000 2.602296 0.423975 3.408412 -0.909763 0.029291 4.333497 0.000000 0.000000 0.000000 -1.011917 -0.043235 4.094803 0.374019 -0.773156 4.954622 -0.504202 -0.087598 5.330182 2.613801 6.713977 0.129272 -63.045159 -2.329073 66.953541 0.144163 -18.229186 0.020744 -0.837940 0.123200 4.335455 8.380867 6.140945 1.713100 69.043568 -13.343401 48.961176 0.212439 64.627655 0.557896 0.000000 -0.000000 -0.000000 1.640407 11.684254 -16.355594 4.682435 7.728609 18.456225 0.000000 -0.000000 0.000000 -1.700854 -9.201105 -12.752350 -0.322502 -2.365037 16.820416 
-3.708633 -0.208176 -1.717638 -0.351242 0.192959 -1.778055 0.000000 -0.000000 -0.000000 2.593687 0.357967 3.496119 -0.812799 0.003250 4.392430 0.000000 0.000000 0.000000 -0.913979 -0.058719 4.183327 0.376037 -0.759367 5.143929 -0.417048 -0.105884 5.404370 2.566953 6.720105 0.116366 -63.258259 -2.397847 66.550217 0.142438 -17.850185 0.017835 -0.736091 0.098574 4.401833 8.378208 6.080082 1.694145 68.805676 -13.212887 48.690494 0.200219 64.204109 0.545437 0.000000 -0.000000 -0.000000 1.725823 11.688009 -16.397422 4.667583 7.772380 18.430611 0.000000 -0.000000 0.000000 -1.621956 -9.170696 -12.773894 -0.367117 -2.474562 16.873511 
-3.884402 -0.216224 -1.761406 -0.280153 0.235141 -1.771609 0.000000 -0.000000 -0.000000 2.567632 0.295854 3.563099 -0.720066 -0.019988 4.443341 0.000000 0.000000 0.000000 -0.821929 -0.072123 4.264381 0.378796 -0.745561 5.334387 -0.332212 -0.122396 5.470687 2.510036 6.725729 0.102493 -63.464446 -2.471983 66.139440 0.142758 -17.463493 0.014792 -0.626652 0.068747 4.465144 8.381465 6.017724 1.677375 68.592574 -13.039560 48.449203 0.183375 63.321152 0.530767 0.000000 -0.000000 -0.000000 1.799060 11.678401 -16.423019 4.649460 7.835903 18.403620 0.000000 -0.000000 0.000000 -1.557543 -9.146817 -12.793698 -0.418943 -2.576558 16.929538 
-4.031393 -0.223021 -1.803627 -0.215867 0.257584 -1.767489 0.000000 -0.000000 -0.000000 2.525963 0.239836 3.629312 -0.630923 -0.041539 4.490258 0.000000 0.000000 0.000000 -0.744621 -0.080896 4.335058 0.388472 -0.726328 5.540342 -0.251460 -0.136915 5.529117 2.441173 6.722411 0.089781 -63.650224 -2.553955 65.771612 0.141635 -17.053832 0.010648 -0.523393 0.041623 4.522175 8.378069 5.950107 1.659625 68.464738 -12.821168 48.243820 0.165061 61.811230 0.514991 0.000000 -0.000000 -0.000000 1.857180 11.662989 -16.440631 4.630384 7.907836 18.380610 0.000000 -0.000000 0.000000 -1.506194 -9.130003 -12.819134 -0.468152 -2.665184 16.998844 
-4.146123 -0.228356 -1.844201 -0.160378 0.262594 -1.762881 0.000000 -0.000000 -0.000000 2.464954 0.189836 3.683353 -0.544716 -0.060661 4.527550 0.000000 0.000000 0.000000 -0.668462 -0.089420 4.399018 0.395859 -0.708405 5.787784 -0.172720 -0.150227 5.580792 2.363229 6.715679 0.076889 -63.818199 -2.657088 65.419333 0.141351 -16.684194 0.007311 -0.435913 0.022266 4.575790 8.373696 5.869771 1.638244 68.467656 -12.552990 48.071924 0.144177 59.496616 0.497783 0.000000 -0.000000 -0.000000 1.900834 11.645383 -16.448240 4.610580 7.981393 18.359466 0.000000 -0.000000 0.000000 -1.470178 -9.117254 -12.850696 -0.517476 -2.735764 17.084478 
-4.225091 -0.232001 -1.883066 -0.113185 0.249682 -1.759270 0.000000 -0.000000 -0.000000 2.383923 0.145195 3.733322 -0.460221 -0.078850 4.559796 0.000000 0.000000 0.000000 -0.584692 -0.095475 4.453908 0.413154 -0.691315 6.035434 -0.098226 -0.161934 5.624294 2.284335 6.707502 0.065498 -63.965811 -2.768365 65.097068 0.141295 -16.323419 0.003003 -0.350165 0.003065 4.623452 8.380026 5.779834 1.614956 68.597693 -12.270064 48.003542 0.122504 56.398727 0.484317 -0.000000 -0.000000 -0.000000 1.927200 11.633823 -16.451952 4.592344 8.052287 18.347321 0.000000 -0.000000 0.000000 -1.449500 -9.110720 -12.880922 -0.569249 -2.798605 17.172300 
-4.265183 -0.233985 -1.920145 -0.076509 0.224513 -1.753392 0.000000 -0.000000 -0.000000 2.289096 0.107062 3.778166 -0.391106 -0.093662 4.577536 0.000000 0.000000 0.000000 -0.508467 -0.101084 4.500582 0.424820 -0.671953 6.261382 -0.030314 -0.172035 5.659555 2.202403 6.684350 0.055544 -64.085277 -2.897152 64.805987 0.140931 -15.989622 -0.001667 -0.270867 -0.014320 4.662828 8.375422 5.689874 1.587503 68.886018 -11.964650 47.967085 0.104638 52.703795 0.479492 -0.000000 -0.000000 -0.000000 1.938109 11.627096 -16.452547 4.574812 8.112206 18.347770 0.000000 -0.000000 0.000000 -1.443437 -9.111992 -12.913988 -0.624245 -2.854944 17.264265 
-4.263114 -0.234192 -1.955336 -0.050617 0.189041 -1.744842 0.000000 -0.000000 -0.000000 2.182481 0.072795 3.824033 -0.330852 -0.107344 4.586408 0.000000 0.000000 0.000000 -0.442806 -0.106497 4.536000 0.434811 -0.652724 6.455774 0.032676 -0.178973 5.685907 2.119534 6.655616 0.047163 -64.182073 -3.040646 64.546989 0.140071 -15.695622 -0.007173 -0.200236 -0.030767 4.691221 8.371041 5.595723 1.555230 69.293041 -11.622081 48.003633 0.087181 48.476879 0.478340 -0.000000 -0.000000 -0.000000 1.928436 11.623235 -16.450510 4.560052 8.161190 18.348547 0.000000 0.000000 0.000000 -1.451883 -9.118678 -12.947208 -0.689621 -2.918774 17.352989 
